HIERARCHY
ROOT root
{
	OFFSET	0	13.1	24.9
	CHANNELS 6  Xposition Yposition Zposition Xrotation Yrotation Zrotation
	JOINT spine_1
	{
		OFFSET	0	9.99999	0
		CHANNELS 3  Xrotation Yrotation Zrotation
		JOINT spine_2
		{
			OFFSET	0	112	-10
			CHANNELS 3  Xrotation Yrotation Zrotation
			JOINT spine_3
			{
				OFFSET	0	206.5	19.3
				CHANNELS 3  Xrotation Yrotation Zrotation
				JOINT spine_4
				{
					OFFSET	0	110.4	14.6
					CHANNELS 3  Xrotation Yrotation Zrotation
					JOINT neck_1
					{
						OFFSET	0	71.8	-50.3
						CHANNELS 3  Xrotation Yrotation Zrotation
						JOINT neck_2
						{
							OFFSET	0	86.2	-25.8
							CHANNELS 3  Xrotation Yrotation Zrotation
							JOINT head_ee
							{
								OFFSET	0	179.8	-8.7
								CHANNELS 3  Xrotation Yrotation Zrotation
								End Site
								{
									OFFSET	1	0	0
								}
							}
						}
					}
					JOINT left_clavicle
					{
						OFFSET	-43.2	22.4	-70.8
						CHANNELS 3  Xrotation Yrotation Zrotation
						JOINT left_shoulder
						{
							OFFSET	-93.9	-5.79999	48.7
							CHANNELS 3  Xrotation Yrotation Zrotation
							JOINT left_elbow
							{
								OFFSET	-291.4	-30.8	15.2
								CHANNELS 3  Xrotation Yrotation Zrotation
								JOINT left_lowarm_twist
								{
									OFFSET	-110.7	-3.89999	13.6
									CHANNELS 3  Xrotation Yrotation Zrotation
									JOINT left_hand
									{
										OFFSET	-110.7	-3.89999	13.6
										CHANNELS 3  Xrotation Yrotation Zrotation
										JOINT left_ee
										{
											OFFSET	-80.8	-5.10001	12.1
											CHANNELS 3  Xrotation Yrotation Zrotation
											End Site
											{
												OFFSET	1	0	0
											}
										}
									}
								}
							}
						}
					}
					JOINT right_clavicle
					{
						OFFSET	43.2	22.4	-70.8
						CHANNELS 3  Xrotation Yrotation Zrotation
						JOINT right_shoulder
						{
							OFFSET	93.9	-5.79999	48.7
							CHANNELS 3  Xrotation Yrotation Zrotation
							JOINT right_elbow
							{
								OFFSET	291.4	-30.8	15.2
								CHANNELS 3  Xrotation Yrotation Zrotation
								JOINT right_lowarm_twist
								{
									OFFSET	110.7	-3.89999	13.6
									CHANNELS 3  Xrotation Yrotation Zrotation
									JOINT right_hand
									{
										OFFSET	110.7	-3.89999	13.6
										CHANNELS 3  Xrotation Yrotation Zrotation
										JOINT right_ee
										{
											OFFSET	80.8	-5.10001	12.1
											CHANNELS 3  Xrotation Yrotation Zrotation
											End Site
											{
												OFFSET	1	0	0
											}
										}
									}
								}
							}
						}
					}
				}
			}
		}
	}
	JOINT left_hip
	{
		OFFSET	-82.8	-127.5	0.300001
		CHANNELS 3  Xrotation Yrotation Zrotation
		JOINT left_knee
		{
			OFFSET	-28.2	-396.7	2.2
			CHANNELS 3  Xrotation Yrotation Zrotation
			JOINT left_ankle
			{
				OFFSET	-11.7	-411.3	35.4
				CHANNELS 3  Xrotation Yrotation Zrotation
				JOINT left_toes
				{
					OFFSET	0	-60	-88.6
					CHANNELS 3  Xrotation Yrotation Zrotation
					JOINT left_foot_ee
					{
						OFFSET	-22.5	-16.5	-42.2
						CHANNELS 3  Xrotation Yrotation Zrotation
						End Site
						{
							OFFSET	1	0	0
						}
					}
				}
			}
		}
	}
	JOINT right_hip
	{
		OFFSET	82.8	-127.5	0.300001
		CHANNELS 3  Xrotation Yrotation Zrotation
		JOINT right_knee
		{
			OFFSET	28.2	-396.7	2.2
			CHANNELS 3  Xrotation Yrotation Zrotation
			JOINT right_ankle
			{
				OFFSET	11.7	-411.3	35.4
				CHANNELS 3  Xrotation Yrotation Zrotation
				JOINT right_toes
				{
					OFFSET	0	-60	-88.6
					CHANNELS 3  Xrotation Yrotation Zrotation
					JOINT right_foot_ee
					{
						OFFSET	22.5	-16.5	-42.2
						CHANNELS 3  Xrotation Yrotation Zrotation
						End Site
						{
							OFFSET	1	0	0
						}
					}
				}
			}
		}
	}
}
MOTION
Frames: 11
Frame Time: 0.02
836.440733334 641.232 -1872.17107696 5.77007531998 21.5718472446 6.32547923187 -2.1107 -0.516087 -4.00289 -2.10182 -0.260538 -4.02757 -2.07408 0.736847 -3.96825 -2.09604 0.101421 -4.0347 3.33138 -0.0290439 7.44215 3.56998 -6.43399 8.35251 -0.0 0.0 -0.0 8.48791 24.2951 14.4795 2.28759 -29.8806 62.5899 2.19142 -47.3432 0.960765 17.3891 0.281548 -2.19495 -1.21521 -3.02263 -9.48941 -0.0 0.0 -0.0 2.99437 8.53327 -5.13779 -21.762 29.2706 -56.4256 0.736561 20.0455 -0.130179 -0.356811 0.0127087 -0.0437959 0.0166682 -9.83953 -4.18462 0.0 0.0 0.0 15.1246 -27.4772 -4.06477 -28.2034 0.108676 4.2833 17.1668 29.2185 -2.55677 -23.2378 0.0 0.0 -0.0 0.0 -0.0 7.3005 19.1254 -8.3102 -38.9037 0.398497 -5.8442 13.4337 -5.85799 1.88662 -15.6864 0.0 0.0 0.0 0.0 0.0 
824.045989039 638.823 -1885.38388171 6.25544732398 20.5193274713 6.19944748021 -2.0571 -0.795906 -4.07542 -2.04802 -0.53519 -4.11771 -1.99911 0.486723 -4.12371 -2.0228 -0.170069 -4.1488 3.39049 -0.95702 6.9897 3.63581 -7.65774 7.7917 -0.0 0.0 -0.0 8.54629 24.9412 14.4676 2.45046 -28.9277 62.1905 2.46922 -50.7246 1.17062 16.8092 0.282964 -2.12089 -1.02524 -2.4908 -7.96287 -0.0 0.0 -0.0 2.89429 7.28379 -5.0337 -22.218 29.7979 -56.2774 0.708699 19.3446 -0.120789 -1.15402 0.0420881 -0.14136 -0.0692529 -13.0462 -4.93 0.0 0.0 0.0 14.7482 -30.8003 -2.48801 -31.5888 -0.0200617 4.78682 18.1061 31.1863 -2.7263 -19.5852 0.0 0.0 -0.0 0.0 -0.0 10.874 24.6612 -8.23529 -34.8814 0.173639 -5.2686 7.04911 -16.9066 1.0239 -15.7805 0.0 0.0 0.0 0.0 0.0 
805.805428279 638.502 -1898.87973726 6.2655049852 20.1969792635 7.34638689 -1.72444 -0.762066 -4.17823 -1.71487 -0.494892 -4.21816 -1.6685 0.526142 -4.21438 -1.69325 -0.145423 -4.24455 4.81485 -2.16919 5.54473 5.03576 -8.55786 6.2311 -0.0 0.0 -0.0 8.57647 23.9156 14.6628 3.09829 -26.6162 60.1817 2.73712 -53.5806 1.38223 15.1544 0.282886 -1.90955 -0.787519 -6.71393 -8.19031 -0.0 0.0 -0.0 1.59544 6.74133 -2.43938 -23.3269 30.7114 -57.9092 0.843282 22.6719 -0.169058 -1.43228 0.0526623 -0.175318 0.173068 -14.6727 -7.09416 0.0 0.0 0.0 14.5511 -28.1438 -3.84885 -35.8472 -0.22392 5.40819 15.8411 29.3176 -2.3724 -17.0365 0.0 0.0 -0.0 0.0 -0.0 13.3968 18.5534 -8.66449 -25.6734 -0.185323 -3.90262 -1.68478 -21.3495 -0.253886 -16.9525 0.0 0.0 0.0 0.0 0.0 
804.976005907 642.47 -1903.12518418 5.13598141032 20.5813978281 8.85137160626 -1.63063 -0.579567 -4.35514 -1.62013 -0.301536 -4.38312 -1.58717 0.747762 -4.32948 -1.61332 0.0553044 -4.39311 5.37899 -0.503916 5.90586 5.55773 -6.04772 6.77362 -0.0 0.0 -0.0 8.36259 24.6539 14.2485 5.34813 -26.0743 62.5642 3.1104 -57.0037 1.68923 12.8082 0.272314 -1.61008 -0.507734 -6.39202 -6.14843 -0.0 0.0 -0.0 1.91463 6.28718 -3.12923 -23.3431 30.2144 -58.142 0.748608 20.3467 -0.134338 -1.50121 0.0553072 -0.183722 0.173058 -15.702 -7.49115 0.0 0.0 0.0 13.4087 -26.709 -6.19497 -32.2739 -0.0497276 4.88777 15.8138 30.5549 -2.38974 -14.4627 0.0 0.0 -0.0 0.0 -0.0 15.0675 15.4485 -10.0926 -24.4678 -0.215915 -3.72013 -2.3866 -25.1044 -0.366417 -16.7489 0.0 0.0 0.0 0.0 0.0 
795.587583217 638.237 -1914.0842922 5.30992358826 20.5923633628 9.36600281419 -1.59751 -0.717658 -4.49037 -1.5864 -0.430769 -4.52684 -1.5416 0.652481 -4.50029 -1.56984 -0.0656817 -4.54677 5.01246 -0.148482 5.37732 5.14844 -4.95828 6.14878 -0.0 0.0 -0.0 6.38807 25.433 11.4108 7.72431 -25.7857 65.396 3.49869 -60.001 2.02043 10.3418 0.247992 -1.29601 -0.490525 -5.06527 -5.46039 -0.0 0.0 -0.0 2.12356 5.31696 -3.63818 -21.8801 29.2767 -58.4509 0.740763 20.1507 -0.131623 -2.5377 0.0962976 -0.309709 0.111893 -17.9102 -7.95771 0.0 0.0 0.0 11.428 -22.3121 -8.15841 -31.6309 -0.0218505 4.79304 16.3105 29.2853 -2.43802 -10.6371 0.0 0.0 -0.0 0.0 -0.0 16.0028 11.3822 -10.0537 -23.1192 -0.245571 -3.51532 -2.3308 -30.3047 -0.369314 -18.9642 0.0 0.0 0.0 0.0 0.0 
783.147614433 640.502 -1926.00476038 4.22082661624 23.8656130025 9.26241029699 -1.46735 -0.634848 -4.34735 -1.45691 -0.3572 -4.37885 -1.42005 0.679836 -4.34055 -1.44633 -0.0135172 -4.39335 5.41095 0.704177 4.89884 5.50377 -3.10282 5.6652 -0.0 0.0 -0.0 4.23893 24.3955 8.53479 11.5025 -22.275 71.353 3.44753 -59.6346 1.9762 8.78413 0.225676 -1.0983 -0.326144 -5.57505 -4.56707 -0.0 0.0 -0.0 2.33694 3.52531 -4.2179 -20.4866 26.3468 -59.0239 0.743807 20.2268 -0.132674 -3.54836 0.138459 -0.431834 0.355065 -18.7657 -9.76324 0.0 0.0 0.0 9.10161 -14.3473 -9.28479 -24.2435 0.221182 3.68611 16.857 28.4811 -2.50086 -7.34246 0.0 0.0 -0.0 0.0 -0.0 14.3948 2.63371 -8.26744 -13.0715 -0.313835 -1.97712 4.60583 -28.0277 0.707864 -19.5442 0.0 0.0 0.0 0.0 0.0 
755.615838265 640.609 -1941.14995309 2.59272657985 29.2041429859 8.70070318142 -1.20729 -0.822309 -4.32497 -1.19705 -0.545703 -4.36841 -1.1462 0.472647 -4.3769 -1.17285 -0.223846 -4.39662 8.85406 -0.0806555 5.37932 9.00829 -5.02384 6.469 -0.0 0.0 -0.0 3.29835 22.9497 7.23769 8.81067 -21.4522 73.2936 2.96758 -55.7634 1.57029 5.16437 0.153118 -0.641673 -0.614775 -4.48577 -6.05163 -0.0 0.0 -0.0 3.28374 2.92466 -6.14018 -20.891 22.7747 -57.5355 0.849906 22.8318 -0.171619 -0.048962 0.00172762 -0.00601435 1.24307 -28.2426 -18.099 0.0 0.0 0.0 7.46386 1.09364 -10.4399 -13.3906 0.31582 2.02604 29.8979 11.8348 -3.8962 -13.804 0.0 0.0 -0.0 0.0 -0.0 8.89293 -3.94937 -7.36475 1.37359 0.0589952 0.202519 5.10404 -5.0464 0.738007 -20.8481 0.0 0.0 0.0 0.0 0.0 
736.52571127 643.444 -1949.05942145 3.61254318746 35.3692786715 7.96871664538 -1.15256 -0.989602 -4.38265 -1.14216 -0.708999 -4.43659 -1.07754 0.323549 -4.48113 -1.10534 -0.387494 -4.47606 8.99869 -1.1124 4.39106 9.14026 -5.83469 5.27587 -0.0 0.0 -0.0 4.51894 21.6358 8.97757 5.75246 -22.2248 73.9257 2.70089 -53.2155 1.35315 2.43315 0.0793519 -0.30062 -0.70627 -3.24758 -6.13412 -0.0 0.0 -0.0 3.58824 1.70806 -6.81854 -19.9485 20.4246 -57.6029 0.761604 20.6703 -0.138891 1.03968 -0.0354704 0.128047 1.40405 -29.4324 -19.34 0.0 0.0 0.0 3.94151 4.01038 -10.348 -8.07973 0.247381 1.21429 32.2304 9.91965 -4.13192 -16.0113 0.0 0.0 -0.0 0.0 -0.0 7.80493 -3.07031 -7.34123 -1.13021 -0.044884 -0.167635 3.36521 1.67037 0.495685 -19.3152 0.0 0.0 0.0 0.0 0.0 
715.544534557 642.321 -1952.1123326 3.45307342169 36.7391775294 7.30272624334 -0.841429 -0.972645 -4.19017 -0.831939 -0.70429 -4.24344 -0.771693 0.260974 -4.29347 -0.797164 -0.419738 -4.28089 9.85572 -2.33376 2.99234 9.98025 -6.56997 3.62948 -0.0 0.0 -0.0 5.0265 21.1953 9.72836 0.859508 -22.9034 73.05 2.42316 -50.1953 1.1351 -0.551908 -0.0197727 0.0677094 -0.510607 -1.7453 -4.16437 -0.0 0.0 -0.0 3.14585 1.78899 -5.9451 -18.4008 20.9008 -58.013 0.917809 24.4488 -0.198851 3.00388 -0.0961099 0.371595 1.74466 -29.4235 -21.3102 0.0 0.0 0.0 1.55279 6.05833 -9.14293 -5.18299 0.178433 0.775153 32.6442 9.58933 -4.17293 -15.8878 0.0 0.0 -0.0 0.0 -0.0 6.89381 -2.91782 -6.33016 -2.17166 -0.0833051 -0.322846 4.33581 3.52351 0.640776 -17.7629 0.0 0.0 0.0 0.0 0.0 
715.686127824 642.321 -1952.28332114 3.45172243009 36.7091603356 7.30498556518 -0.841429 -0.972645 -4.19017 -0.831939 -0.70429 -4.24344 -0.771693 0.260974 -4.29347 -0.797164 -0.419738 -4.28089 9.85572 -2.33376 2.99234 9.98025 -6.56997 3.62948 -0.0 0.0 -0.0 5.0265 21.1953 9.72836 0.859508 -22.9034 73.05 2.42316 -50.1953 1.1351 -0.551908 -0.0197727 0.0677094 -0.510607 -1.7453 -4.16437 -0.0 0.0 -0.0 3.14585 1.78899 -5.9451 -18.4008 20.9008 -58.013 0.917809 24.4488 -0.198851 3.00388 -0.0961099 0.371595 1.74466 -29.4235 -21.3102 0.0 0.0 0.0 1.55279 6.05833 -9.14293 -5.18299 0.178433 0.775153 32.6442 9.58933 -4.17293 -15.8878 0.0 0.0 -0.0 0.0 -0.0 6.89381 -2.91782 -6.33016 -2.17166 -0.0833051 -0.322846 4.33581 3.52351 0.640776 -17.7629 0.0 0.0 0.0 0.0 0.0 
716.013173778 642.321 -1952.67756594 3.44861287287 36.6399003307 7.31019185974 -0.841429 -0.972645 -4.19017 -0.831939 -0.70429 -4.24344 -0.771693 0.260974 -4.29347 -0.797164 -0.419738 -4.28089 9.85572 -2.33376 2.99234 9.98025 -6.56997 3.62948 -0.0 0.0 -0.0 5.0265 21.1953 9.72836 0.859508 -22.9034 73.05 2.42316 -50.1953 1.1351 -0.551908 -0.0197727 0.0677094 -0.510607 -1.7453 -4.16437 -0.0 0.0 -0.0 3.14585 1.78899 -5.9451 -18.4008 20.9008 -58.013 0.917809 24.4488 -0.198851 3.00388 -0.0961099 0.371595 1.74466 -29.4235 -21.3102 0.0 0.0 0.0 1.55279 6.05833 -9.14293 -5.18299 0.178433 0.775153 32.6442 9.58933 -4.17293 -15.8878 0.0 0.0 -0.0 0.0 -0.0 6.89381 -2.91782 -6.33016 -2.17166 -0.0833051 -0.322846 4.33581 3.52351 0.640776 -17.7629 0.0 0.0 0.0 0.0 0.0 
